<svg width="37.109" height="37.113" xmlns="http://www.w3.org/2000/svg"><path d="M36.73 14.824a18.497 18.497 0 0 0-5.057-9.383 18.45 18.45 0 0 0-2.744-2.266 18.458 18.458 0 0 0-3.154-1.716A18.481 18.481 0 0 0 22.288.383a18.556 18.556 0 0 0-7.474 0 18.553 18.553 0 0 0-3.485 1.076 18.439 18.439 0 0 0-3.152 1.716 18.484 18.484 0 0 0-2.75 2.266 18.485 18.485 0 0 0-3.97 5.895 18.364 18.364 0 0 0-1.085 3.488 18.862 18.862 0 0 0-.377 3.735c0 1.257.13 2.517.377 3.734a18.682 18.682 0 0 0 2.793 6.646 19.224 19.224 0 0 0 2.262 2.74 18.43 18.43 0 0 0 2.75 2.262c.99.672 2.05 1.25 3.152 1.717a18.61 18.61 0 0 0 3.485 1.076 18.304 18.304 0 0 0 3.935.38c1.19-.01 2.375-.138 3.54-.38a18.538 18.538 0 0 0 3.486-1.076 18.472 18.472 0 0 0 3.154-1.717 18.398 18.398 0 0 0 2.744-2.261 18.728 18.728 0 0 0 2.262-2.74 18.702 18.702 0 0 0 1.713-3.159 18.425 18.425 0 0 0 1.451-7.687 18.424 18.424 0 0 0-.37-3.27zm-34.019 3.4a10.61 10.61 0 0 0-.007.335 15.808 15.808 0 0 0 4.06 10.59l-.003-.008c.042-.074.086-.148.131-.22.644-1.051 3.66-5.63 9.001-8.602a20.982 20.982 0 0 1 3.832-1.662c.183-.056.365-.113.548-.161-.401-.911-.83-1.81-1.287-2.695-1.643.488-3.31.891-4.994 1.21-6.1 1.163-11.053 1.05-11.276 1.048l-.003.096-.002.07zm7.723 13.947a15.784 15.784 0 0 0 8.528 2.232 15.803 15.803 0 0 0 5.774-1.25c-.175-1.04-.736-4.03-1.947-7.904a67.59 67.59 0 0 0-1.438-4.128c-.033.004-.067.018-.104.03-.3.104-.598.214-.895.329-7.67 2.973-10.788 8.148-11.417 9.328a5.124 5.124 0 0 0-.124.244 9.683 9.683 0 0 1-.354-.277c.622.515 1.283.982 1.977 1.396zm1.358-27.943c.205.282 3.14 4.256 5.881 9.13-1.724.455-3.468.83-5.227 1.122-5.132.856-8.995.818-9.391.813h-.013a15.88 15.88 0 0 1 8.75-11.065zm17.227 2.44c-.041.062-2.299 3.496-8.28 5.736a81.172 81.172 0 0 0-5.722-8.978 26.34 26.34 0 0 0-.2-.266 15.912 15.912 0 0 1 3.735-.447c2.95-.005 5.843.82 8.348 2.38a15.94 15.94 0 0 1 2.119 1.575zm5.35 11.725l.025.005a15.796 15.796 0 0 0-3.604-9.906l-.019.027c-.223.31-2.376 3.197-7.252 5.554-.511.247-1.03.478-1.557.693a52.98 52.98 0 0 1 1.395 3.115c5.315-.668 10.552.417 11.012.512zM27.406 31.7c-.03-.175-.061-.35-.094-.525-.262-1.416-.973-4.833-2.381-9.044a71.235 71.235 0 0 0-.61-1.747c5.116-.817 9.547.586 9.877.693A15.817 15.817 0 0 1 27.406 31.7zM14.756 3.172v.003a1.863 1.863 0 0 1-.05.009.211.211 0 0 0 .05-.012z" fill="#fff" fill-rule="evenodd"/></svg>