<svg width="36.977" height="30.052" xmlns="http://www.w3.org/2000/svg"><path d="M32.62 4.755a15.116 15.116 0 0 0 4.355-1.193 15.378 15.378 0 0 1-3.785 3.924 17.148 17.148 0 0 1 .025.982 20.894 20.894 0 0 1-.312 3.568c-1.124 6.475-5.258 12.95-12.069 16.08a21.851 21.851 0 0 1-9.205 1.938A21.502 21.502 0 0 1 0 26.646c.601.071 1.206.107 1.812.107a15.21 15.21 0 0 0 9.418-3.248 7.584 7.584 0 0 1-7.082-5.271c.462.092.936.137 1.424.137.693 0 1.361-.092 2.002-.264a7.594 7.594 0 0 1-6.088-7.438v-.1a7.584 7.584 0 0 0 3.437.954 7.662 7.662 0 0 1-1.405-1.214 7.567 7.567 0 0 1-1.96-5.497A7.565 7.565 0 0 1 2.575 1.39 21.74 21.74 0 0 0 4.36 3.328 21.482 21.482 0 0 0 18.212 9.32 7.586 7.586 0 0 1 26.158.024c1.9.137 3.68.986 4.981 2.378A15.205 15.205 0 0 0 35.956.556a7.603 7.603 0 0 1-3.336 4.2z" fill="#fff" fill-rule="evenodd"/></svg>